<svg width="84" height="84" viewBox="0 0 84 84" fill="none" xmlns="http://www.w3.org/2000/svg">
<path d="M41.6667 47.9167C36.9444 47.9167 32.6562 49.2535 28.8021 51.9271C24.9479 54.6007 22.1528 58.125 20.4167 62.5H62.9167C61.1806 58.125 58.3854 54.6007 54.5312 51.9271C50.6771 49.2535 46.3889 47.9167 41.6667 47.9167ZM24.1667 41.6667L28.75 37.2917L33.125 41.6667L37.5 37.2917L33.125 32.9167L37.5 28.3333L33.125 23.9583L28.75 28.3333L24.1667 23.9583L19.7917 28.3333L24.1667 32.9167L19.7917 37.2917L24.1667 41.6667ZM50.2083 41.6667L54.5833 37.2917L59.1667 41.6667L63.5417 37.2917L59.1667 32.9167L63.5417 28.3333L59.1667 23.9583L54.5833 28.3333L50.2083 23.9583L45.8333 28.3333L50.2083 32.9167L45.8333 37.2917L50.2083 41.6667ZM41.6667 83.3333C35.9028 83.3333 30.4861 82.2396 25.4167 80.0521C20.3472 77.8646 15.9375 74.8958 12.1875 71.1458C8.4375 67.3958 5.46875 62.9861 3.28125 57.9167C1.09375 52.8472 0 47.4306 0 41.6667C0 35.9028 1.09375 30.4861 3.28125 25.4167C5.46875 20.3472 8.4375 15.9375 12.1875 12.1875C15.9375 8.4375 20.3472 5.46875 25.4167 3.28125C30.4861 1.09375 35.9028 0 41.6667 0C47.4306 0 52.8472 1.09375 57.9167 3.28125C62.9861 5.46875 67.3958 8.4375 71.1458 12.1875C74.8958 15.9375 77.8646 20.3472 80.0521 25.4167C82.2396 30.4861 83.3333 35.9028 83.3333 41.6667C83.3333 47.4306 82.2396 52.8472 80.0521 57.9167C77.8646 62.9861 74.8958 67.3958 71.1458 71.1458C67.3958 74.8958 62.9861 77.8646 57.9167 80.0521C52.8472 82.2396 47.4306 83.3333 41.6667 83.3333ZM41.6667 75C50.9722 75 58.8542 71.7708 65.3125 65.3125C71.7708 58.8542 75 50.9722 75 41.6667C75 32.3611 71.7708 24.4792 65.3125 18.0208C58.8542 11.5625 50.9722 8.33333 41.6667 8.33333C32.3611 8.33333 24.4792 11.5625 18.0208 18.0208C11.5625 24.4792 8.33333 32.3611 8.33333 41.6667C8.33333 50.9722 11.5625 58.8542 18.0208 65.3125C24.4792 71.7708 32.3611 75 41.6667 75Z" fill="#EF4444"/>
</svg>
