<svg width="84" height="84" viewBox="0 0 84 84" fill="none" xmlns="http://www.w3.org/2000/svg">
<path d="M56.25 37.5C57.9861 37.5 59.4618 36.8924 60.6771 35.6771C61.8924 34.4618 62.5 32.9861 62.5 31.25C62.5 29.5139 61.8924 28.0382 60.6771 26.8229C59.4618 25.6076 57.9861 25 56.25 25C54.5139 25 53.0382 25.6076 51.8229 26.8229C50.6076 28.0382 50 29.5139 50 31.25C50 32.9861 50.6076 34.4618 51.8229 35.6771C53.0382 36.8924 54.5139 37.5 56.25 37.5ZM27.0833 37.5C28.8194 37.5 30.2951 36.8924 31.5104 35.6771C32.7257 34.4618 33.3333 32.9861 33.3333 31.25C33.3333 29.5139 32.7257 28.0382 31.5104 26.8229C30.2951 25.6076 28.8194 25 27.0833 25C25.3472 25 23.8715 25.6076 22.6562 26.8229C21.441 28.0382 20.8333 29.5139 20.8333 31.25C20.8333 32.9861 21.441 34.4618 22.6562 35.6771C23.8715 36.8924 25.3472 37.5 27.0833 37.5ZM41.6667 64.5833C46.3889 64.5833 50.6771 63.2465 54.5312 60.5729C58.3854 57.8993 61.1806 54.375 62.9167 50H56.0417C54.5139 52.5694 52.4826 54.6007 49.9479 56.0938C47.4132 57.5868 44.6528 58.3333 41.6667 58.3333C38.6806 58.3333 35.9201 57.5868 33.3854 56.0938C30.8507 54.6007 28.8194 52.5694 27.2917 50H20.4167C22.1528 54.375 24.9479 57.8993 28.8021 60.5729C32.6562 63.2465 36.9444 64.5833 41.6667 64.5833ZM41.6667 83.3333C35.9028 83.3333 30.4861 82.2396 25.4167 80.0521C20.3472 77.8646 15.9375 74.8958 12.1875 71.1458C8.4375 67.3958 5.46875 62.9861 3.28125 57.9167C1.09375 52.8472 0 47.4306 0 41.6667C0 35.9028 1.09375 30.4861 3.28125 25.4167C5.46875 20.3472 8.4375 15.9375 12.1875 12.1875C15.9375 8.4375 20.3472 5.46875 25.4167 3.28125C30.4861 1.09375 35.9028 0 41.6667 0C47.4306 0 52.8472 1.09375 57.9167 3.28125C62.9861 5.46875 67.3958 8.4375 71.1458 12.1875C74.8958 15.9375 77.8646 20.3472 80.0521 25.4167C82.2396 30.4861 83.3333 35.9028 83.3333 41.6667C83.3333 47.4306 82.2396 52.8472 80.0521 57.9167C77.8646 62.9861 74.8958 67.3958 71.1458 71.1458C67.3958 74.8958 62.9861 77.8646 57.9167 80.0521C52.8472 82.2396 47.4306 83.3333 41.6667 83.3333ZM41.6667 75C50.9722 75 58.8542 71.7708 65.3125 65.3125C71.7708 58.8542 75 50.9722 75 41.6667C75 32.3611 71.7708 24.4792 65.3125 18.0208C58.8542 11.5625 50.9722 8.33333 41.6667 8.33333C32.3611 8.33333 24.4792 11.5625 18.0208 18.0208C11.5625 24.4792 8.33333 32.3611 8.33333 41.6667C8.33333 50.9722 11.5625 58.8542 18.0208 65.3125C24.4792 71.7708 32.3611 75 41.6667 75Z" fill="#476350"/>
</svg>
