<svg width="84" height="84" viewBox="0 0 84 84" fill="none" xmlns="http://www.w3.org/2000/svg">
<path d="M41.6667 64.5833C46.3889 64.5833 50.6771 63.2465 54.5312 60.5729C58.3854 57.8993 61.1806 54.375 62.9167 50H20.4167C22.1528 54.375 24.9479 57.8993 28.8021 60.5729C32.6562 63.2465 36.9444 64.5833 41.6667 64.5833ZM24.1667 37.5L28.75 33.125L33.125 37.5L37.5 33.125L28.75 24.1667L19.7917 33.125L24.1667 37.5ZM50.2083 37.5L54.5833 33.125L59.1667 37.5L63.5417 33.125L54.5833 24.1667L45.8333 33.125L50.2083 37.5ZM41.6667 83.3333C35.9028 83.3333 30.4861 82.2396 25.4167 80.0521C20.3472 77.8646 15.9375 74.8958 12.1875 71.1458C8.4375 67.3958 5.46875 62.9861 3.28125 57.9167C1.09375 52.8472 0 47.4306 0 41.6667C0 35.9028 1.09375 30.4861 3.28125 25.4167C5.46875 20.3472 8.4375 15.9375 12.1875 12.1875C15.9375 8.4375 20.3472 5.46875 25.4167 3.28125C30.4861 1.09375 35.9028 0 41.6667 0C47.4306 0 52.8472 1.09375 57.9167 3.28125C62.9861 5.46875 67.3958 8.4375 71.1458 12.1875C74.8958 15.9375 77.8646 20.3472 80.0521 25.4167C82.2396 30.4861 83.3333 35.9028 83.3333 41.6667C83.3333 47.4306 82.2396 52.8472 80.0521 57.9167C77.8646 62.9861 74.8958 67.3958 71.1458 71.1458C67.3958 74.8958 62.9861 77.8646 57.9167 80.0521C52.8472 82.2396 47.4306 83.3333 41.6667 83.3333ZM41.6667 75C50.9722 75 58.8542 71.7708 65.3125 65.3125C71.7708 58.8542 75 50.9722 75 41.6667C75 32.3611 71.7708 24.4792 65.3125 18.0208C58.8542 11.5625 50.9722 8.33333 41.6667 8.33333C32.3611 8.33333 24.4792 11.5625 18.0208 18.0208C11.5625 24.4792 8.33333 32.3611 8.33333 41.6667C8.33333 50.9722 11.5625 58.8542 18.0208 65.3125C24.4792 71.7708 32.3611 75 41.6667 75Z" fill="#2ECC70"/>
</svg>
