<svg width="91" height="91" viewBox="0 0 91 91" fill="none" xmlns="http://www.w3.org/2000/svg">
<path d="M34.1333 64L53.3333 44.8L72.5333 64L80 56.5333L60.8 37.3333L80 18.1333L72.5333 10.6667L53.3333 29.8667L34.1333 10.6667L26.6667 18.1333L45.8667 37.3333L26.6667 56.5333L34.1333 64ZM53.3333 90.6667C45.9556 90.6667 39.0222 89.2667 32.5333 86.4667C26.0444 83.6667 20.4 79.8667 15.6 75.0667C10.8 70.2667 7 64.6222 4.2 58.1333C1.4 51.6444 0 44.7111 0 37.3333C0 29.9556 1.4 23.0222 4.2 16.5333C7 10.0444 10.8 4.4 15.6 -0.4C20.4 -5.2 26.0444 -9 32.5333 -11.8C39.0222 -14.6 45.9556 -16 53.3333 -16C60.7111 -16 67.6444 -14.6 74.1333 -11.8C80.6222 -9 86.2667 -5.2 91.0667 -0.4C95.8667 4.4 99.6667 10.0444 102.467 16.5333C105.267 23.0222 106.667 29.9556 106.667 37.3333C106.667 44.7111 105.267 51.6444 102.467 58.1333C99.6667 64.6222 95.8667 70.2667 91.0667 75.0667C86.2667 79.8667 80.6222 83.6667 74.1333 86.4667C67.6444 89.2667 60.7111 90.6667 53.3333 90.6667Z" fill="#BA1A1A"/>
</svg>
